<?xml version="1.0" encoding="UTF-8" standalone="no"?>
<svg
   xmlns:dc="http://purl.org/dc/elements/1.1/"
   xmlns:cc="http://creativecommons.org/ns#"
   xmlns:rdf="http://www.w3.org/1999/02/22-rdf-syntax-ns#"
   xmlns:svg="http://www.w3.org/2000/svg"
   xmlns="http://www.w3.org/2000/svg"
   width="34.852325mm"
   height="34.85268mm"
   viewBox="0 0 34.852325 34.85268"
   version="1.1"
   id="svg4695">
  <defs
     id="defs4689">
    <clipPath
       clipPathUnits="userSpaceOnUse"
       id="clipPath1593">
      <path
         d="m 149.804,678.58 c -4.78,0 -8.653,-3.874 -8.653,-8.653 v 0 -81.487 c 0,-4.779 3.873,-8.654 8.653,-8.654 v 0 h 81.486 c 4.78,0 8.655,3.875 8.655,8.654 v 0 81.487 c 0,4.779 -3.875,8.653 -8.655,8.653 v 0 z"
         id="path1591" />
    </clipPath>
    <radialGradient
       fx="0"
       fy="0"
       cx="0"
       cy="0"
       r="1"
       gradientUnits="userSpaceOnUse"
       gradientTransform="matrix(49.396973,0,0,-49.396973,190.54736,629.18311)"
       spreadMethod="pad"
       id="radialGradient1603">
      <stop
         style="stop-opacity:1;stop-color:#c2e8f7"
         offset="0"
         id="stop1599" />
      <stop
         style="stop-opacity:1;stop-color:#46c6e5"
         offset="1"
         id="stop1601" />
    </radialGradient>
    <clipPath
       clipPathUnits="userSpaceOnUse"
       id="clipPath1633">
      <path
         d="M 0,841.89 H 595.28 V 0 H 0 Z"
         id="path1631" />
    </clipPath>
    <clipPath
       clipPathUnits="userSpaceOnUse"
       id="clipPath1657">
      <path
         d="m 161.789,642.729 c -0.739,-3.103 3.065,-6.941 9.637,-10.447 v 0 l -7.568,-31.755 0.009,-0.002 c -0.006,-0.022 -0.018,-0.043 -0.024,-0.066 v 0 c -0.55,-2.308 8.013,-6.324 19.125,-8.972 v 0 c 11.112,-2.648 20.565,-2.922 21.115,-0.614 v 0 c 0.006,0.022 0.005,0.046 0.009,0.069 v 0 l 0.178,-0.043 7.566,31.755 c 7.445,0.167 12.571,1.878 13.311,4.98 v 0 c 1.318,5.534 -11.797,13.396 -29.292,17.566 v 0 c -7.146,1.702 -13.92,2.525 -19.521,2.525 v 0 c -8.112,0 -13.765,-1.724 -14.545,-4.996"
         id="path1655" />
    </clipPath>
    <linearGradient
       x1="0"
       y1="0"
       x2="1"
       y2="0"
       gradientUnits="userSpaceOnUse"
       gradientTransform="matrix(4.2832336,50.176743,50.176743,-4.2832336,186.95703,558.89893)"
       spreadMethod="pad"
       id="linearGradient1667">
      <stop
         style="stop-opacity:1;stop-color:#828487"
         offset="0"
         id="stop1663" />
      <stop
         style="stop-opacity:1;stop-color:#231f20"
         offset="1"
         id="stop1665" />
    </linearGradient>
    <clipPath
       clipPathUnits="userSpaceOnUse"
       id="clipPath1677">
      <path
         d="m 174.14,633.483 -8.4,-32.984 4.08,0.02 7.653,33.541 c 0,0 -0.444,0.214 -1.124,0.214 v 0 c -0.599,0 -1.382,-0.166 -2.209,-0.791"
         id="path1675" />
    </clipPath>
    <linearGradient
       x1="0"
       y1="0"
       x2="1"
       y2="0"
       gradientUnits="userSpaceOnUse"
       gradientTransform="matrix(7.4334106,46.706299,46.706299,-7.4334106,165.58252,579.42969)"
       spreadMethod="pad"
       id="linearGradient1687">
      <stop
         style="stop-opacity:1;stop-color:#ffffff"
         offset="0"
         id="stop1683" />
      <stop
         style="stop-opacity:1;stop-color:#231f20"
         offset="1"
         id="stop1685" />
    </linearGradient>
    <clipPath
       clipPathUnits="userSpaceOnUse"
       id="clipPath1697">
      <path
         d="m 149.804,545.938 c -4.78,0 -8.653,-3.874 -8.653,-8.654 v 0 -81.486 c 0,-4.78 3.873,-8.655 8.653,-8.655 v 0 h 81.486 c 4.78,0 8.655,3.875 8.655,8.655 v 0 81.486 c 0,4.78 -3.875,8.654 -8.655,8.654 v 0 z"
         id="path1695" />
    </clipPath>
    <radialGradient
       fx="0"
       fy="0"
       cx="0"
       cy="0"
       r="1"
       gradientUnits="userSpaceOnUse"
       gradientTransform="matrix(49.396973,0,0,-49.396973,190.54736,496.54053)"
       spreadMethod="pad"
       id="radialGradient1707">
      <stop
         style="stop-opacity:1;stop-color:#e7e514"
         offset="0"
         id="stop1703" />
      <stop
         style="stop-opacity:1;stop-color:#6ebe44"
         offset="1"
         id="stop1705" />
    </radialGradient>
    <clipPath
       clipPathUnits="userSpaceOnUse"
       id="clipPath1717">
      <path
         d="M 0,841.89 H 595.28 V 0 H 0 Z"
         id="path1715" />
    </clipPath>
    <clipPath
       clipPathUnits="userSpaceOnUse"
       id="clipPath1049">
      <path
         d="m 149.804,415.06 c -4.78,0 -8.653,-3.875 -8.653,-8.654 v 0 -81.489 c 0,-4.776 3.873,-8.651 8.653,-8.651 v 0 h 81.486 c 4.78,0 8.655,3.875 8.655,8.651 v 0 81.489 c 0,4.779 -3.875,8.654 -8.655,8.654 v 0 z"
         id="path1047" />
    </clipPath>
    <radialGradient
       fx="0"
       fy="0"
       cx="0"
       cy="0"
       r="1"
       gradientUnits="userSpaceOnUse"
       gradientTransform="matrix(49.397217,0,0,-49.397217,190.54736,365.66357)"
       spreadMethod="pad"
       id="radialGradient1059">
      <stop
         style="stop-opacity:1;stop-color:#fef6fa"
         offset="0"
         id="stop1055" />
      <stop
         style="stop-opacity:1;stop-color:#f8bdd7"
         offset="1"
         id="stop1057" />
    </radialGradient>
    <clipPath
       clipPathUnits="userSpaceOnUse"
       id="clipPath1089">
      <path
         d="m 156.86,378.544 c -1.602,-10.154 22.759,-41.773 29.887,-42.896 v 0 c 7.125,-1.125 39.051,21.617 40.654,31.769 v 0 c 1.602,10.155 -5.33,19.672 -15.482,21.283 v 0 c -7.579,1.193 -14.806,-2.372 -18.649,-8.475 v 0 c -1.773,6.988 -7.552,12.603 -15.131,13.803 v 0 c -0.984,0.156 -1.963,0.231 -2.929,0.231 v 0 c -8.998,0 -16.91,-6.543 -18.35,-15.715 m 41.117,-1.665 c 5.035,2.448 11.101,0.364 13.555,-4.672 v 0 c 2.455,-5.031 -4.703,-25.15 -8.236,-26.872 v 0 c -3.533,-1.724 -24.28,4.791 -26.732,9.826 v 0 c -2.458,5.03 -0.367,11.101 4.668,13.553 v 0 c 3.758,1.83 8.091,1.127 11.063,-1.442 v 0 c -0.188,3.928 1.926,7.774 5.682,9.607"
         id="path1087" />
    </clipPath>
    <linearGradient
       x1="0"
       y1="0"
       x2="1"
       y2="0"
       gradientUnits="userSpaceOnUse"
       gradientTransform="matrix(29.536148,-72.949219,-72.949219,-29.536148,176.81592,412.45166)"
       spreadMethod="pad"
       id="linearGradient1099">
      <stop
         style="stop-opacity:1;stop-color:#a30c11"
         offset="0"
         id="stop1095" />
      <stop
         style="stop-opacity:1;stop-color:#ed1c24"
         offset="1"
         id="stop1097" />
    </linearGradient>
    <clipPath
       clipPathUnits="userSpaceOnUse"
       id="clipPath1729">
      <path
         d="m 256.886,545.938 c -4.78,0 -8.654,-3.874 -8.654,-8.654 v 0 -81.486 c 0,-4.78 3.874,-8.655 8.654,-8.655 v 0 h 81.487 c 4.778,0 8.653,3.875 8.653,8.655 v 0 81.486 c 0,4.78 -3.875,8.654 -8.653,8.654 v 0 z"
         id="path1727" />
    </clipPath>
    <radialGradient
       fx="0"
       fy="0"
       cx="0"
       cy="0"
       r="1"
       gradientUnits="userSpaceOnUse"
       gradientTransform="matrix(49.396729,0,0,-49.396729,297.62891,496.54053)"
       spreadMethod="pad"
       id="radialGradient1739">
      <stop
         style="stop-opacity:1;stop-color:#fffbd3"
         offset="0"
         id="stop1735" />
      <stop
         style="stop-opacity:1;stop-color:#febd10"
         offset="1"
         id="stop1737" />
    </radialGradient>
    <clipPath
       clipPathUnits="userSpaceOnUse"
       id="clipPath1769">
      <path
         d="m 271.667,525.017 c -10.516,-2.607 -16.927,-13.244 -14.319,-23.76 v 0 c 2.175,-8.77 9.941,-14.662 18.558,-14.869 v 0 c -2.729,-2.535 -4.102,-4.963 -4.102,-4.963 v 0 c 0,0 7.9,-7.039 18.691,-9.816 v 0 c 10.789,-2.778 20.385,-0.242 20.385,-0.242 v 0 c 0,0 0.129,1.554 -0.23,3.816 v 0 c 5.562,-2.995 12.46,-3.258 18.467,-0.091 v 0 c 9.585,5.053 13.257,16.916 8.206,26.501 v 0 c -5.055,9.581 -16.919,13.254 -26.5,8.203 v 0 c -7.667,-4.043 -11.543,-12.442 -10.205,-20.545 v 0 c -1.566,0.818 -3.364,1.519 -5.44,2.055 v 0 c -1.783,0.459 -3.46,0.672 -5.041,0.711 v 0 c 4.765,4.702 7.017,11.712 5.287,18.683 v 0 c -2.213,8.929 -10.219,14.898 -19.021,14.898 v 0 c -1.563,0 -3.151,-0.188 -4.736,-0.581"
         id="path1767" />
    </clipPath>
    <linearGradient
       x1="0"
       y1="0"
       x2="1"
       y2="0"
       gradientUnits="userSpaceOnUse"
       gradientTransform="matrix(50.953339,-84.826767,-84.826767,-50.953339,271.23437,544.06689)"
       spreadMethod="pad"
       id="linearGradient1779">
      <stop
         style="stop-opacity:1;stop-color:#828487"
         offset="0"
         id="stop1775" />
      <stop
         style="stop-opacity:1;stop-color:#231f20"
         offset="1"
         id="stop1777" />
    </linearGradient>
  </defs>
  <metadata
     id="metadata4692">
    <rdf:RDF>
      <cc:Work
         rdf:about="">
        <dc:format>image/svg+xml</dc:format>
        <dc:type
           rdf:resource="http://purl.org/dc/dcmitype/StillImage" />
        <dc:title></dc:title>
      </cc:Work>
    </rdf:RDF>
  </metadata>
  <g
     id="layer3">
    <rect
       style="display:inline;fill:#febd10;fill-opacity:0.991903;stroke:none;stroke-width:0.436999"
       id="rect886"
       width="34.852238"
       height="34.852768"
       x="0"
       y="1.7763568e-15" />
    <g
       id="layer1"
       transform="translate(-32.726896,-37.64023)">
      <g
         id="g1723"
         transform="matrix(0.35277777,0,0,-0.35277777,-54.843836,230.23502)">
        <g
           id="g1725"
           clip-path="url(#clipPath1729)">
          <g
             id="g1731">
            <g
               id="g1733">
              <path
                 d="m 256.886,545.938 c -4.78,0 -8.654,-3.874 -8.654,-8.654 v 0 -81.486 c 0,-4.78 3.874,-8.655 8.654,-8.655 v 0 h 81.487 c 4.778,0 8.653,3.875 8.653,8.655 v 0 81.486 c 0,4.78 -3.875,8.654 -8.653,8.654 v 0 z"
                 style="fill:url(#radialGradient1739);stroke:none"
                 id="path1741" />
            </g>
          </g>
        </g>
      </g>
      <g
         id="g1763"
         transform="matrix(0.35277777,0,0,-0.35277777,-54.843836,230.23502)">
        <g
           id="g1765"
           clip-path="url(#clipPath1769)">
          <g
             id="g1771">
            <g
               id="g1773">
              <path
                 d="m 271.667,525.017 c -10.516,-2.607 -16.927,-13.244 -14.319,-23.76 v 0 c 2.175,-8.77 9.941,-14.662 18.558,-14.869 v 0 c -2.729,-2.535 -4.102,-4.963 -4.102,-4.963 v 0 c 0,0 7.9,-7.039 18.691,-9.816 v 0 c 10.789,-2.778 20.385,-0.242 20.385,-0.242 v 0 c 0,0 0.129,1.554 -0.23,3.816 v 0 c 5.562,-2.995 12.46,-3.258 18.467,-0.091 v 0 c 9.585,5.053 13.257,16.916 8.206,26.501 v 0 c -5.055,9.581 -16.919,13.254 -26.5,8.203 v 0 c -7.667,-4.043 -11.543,-12.442 -10.205,-20.545 v 0 c -1.566,0.818 -3.364,1.519 -5.44,2.055 v 0 c -1.783,0.459 -3.46,0.672 -5.041,0.711 v 0 c 4.765,4.702 7.017,11.712 5.287,18.683 v 0 c -2.213,8.929 -10.219,14.898 -19.021,14.898 v 0 c -1.563,0 -3.151,-0.188 -4.736,-0.581"
                 style="fill:url(#linearGradient1779);stroke:none"
                 id="path1781" />
            </g>
          </g>
        </g>
      </g>
    </g>
  </g>
</svg>
