<?xml version="1.0" encoding="UTF-8" standalone="no"?>
<svg
   xmlns:dc="http://purl.org/dc/elements/1.1/"
   xmlns:cc="http://creativecommons.org/ns#"
   xmlns:rdf="http://www.w3.org/1999/02/22-rdf-syntax-ns#"
   xmlns:svg="http://www.w3.org/2000/svg"
   xmlns="http://www.w3.org/2000/svg"
   width="34.852325mm"
   height="34.852325mm"
   viewBox="0 0 34.852325 34.852325"
   version="1.1"
   id="svg4695">
  <defs
     id="defs4689">
    <clipPath
       clipPathUnits="userSpaceOnUse"
       id="clipPath1593">
      <path
         d="m 149.804,678.58 c -4.78,0 -8.653,-3.874 -8.653,-8.653 v 0 -81.487 c 0,-4.779 3.873,-8.654 8.653,-8.654 v 0 h 81.486 c 4.78,0 8.655,3.875 8.655,8.654 v 0 81.487 c 0,4.779 -3.875,8.653 -8.655,8.653 v 0 z"
         id="path1591" />
    </clipPath>
    <radialGradient
       fx="0"
       fy="0"
       cx="0"
       cy="0"
       r="1"
       gradientUnits="userSpaceOnUse"
       gradientTransform="matrix(49.396973,0,0,-49.396973,190.54736,629.18311)"
       spreadMethod="pad"
       id="radialGradient1603">
      <stop
         style="stop-opacity:1;stop-color:#c2e8f7"
         offset="0"
         id="stop1599" />
      <stop
         style="stop-opacity:1;stop-color:#46c6e5"
         offset="1"
         id="stop1601" />
    </radialGradient>
    <clipPath
       clipPathUnits="userSpaceOnUse"
       id="clipPath1633">
      <path
         d="M 0,841.89 H 595.28 V 0 H 0 Z"
         id="path1631" />
    </clipPath>
    <clipPath
       clipPathUnits="userSpaceOnUse"
       id="clipPath1657">
      <path
         d="m 161.789,642.729 c -0.739,-3.103 3.065,-6.941 9.637,-10.447 v 0 l -7.568,-31.755 0.009,-0.002 c -0.006,-0.022 -0.018,-0.043 -0.024,-0.066 v 0 c -0.55,-2.308 8.013,-6.324 19.125,-8.972 v 0 c 11.112,-2.648 20.565,-2.922 21.115,-0.614 v 0 c 0.006,0.022 0.005,0.046 0.009,0.069 v 0 l 0.178,-0.043 7.566,31.755 c 7.445,0.167 12.571,1.878 13.311,4.98 v 0 c 1.318,5.534 -11.797,13.396 -29.292,17.566 v 0 c -7.146,1.702 -13.92,2.525 -19.521,2.525 v 0 c -8.112,0 -13.765,-1.724 -14.545,-4.996"
         id="path1655" />
    </clipPath>
    <linearGradient
       x1="0"
       y1="0"
       x2="1"
       y2="0"
       gradientUnits="userSpaceOnUse"
       gradientTransform="matrix(4.2832336,50.176743,50.176743,-4.2832336,186.95703,558.89893)"
       spreadMethod="pad"
       id="linearGradient1667">
      <stop
         style="stop-opacity:1;stop-color:#828487"
         offset="0"
         id="stop1663" />
      <stop
         style="stop-opacity:1;stop-color:#231f20"
         offset="1"
         id="stop1665" />
    </linearGradient>
    <clipPath
       clipPathUnits="userSpaceOnUse"
       id="clipPath1677">
      <path
         d="m 174.14,633.483 -8.4,-32.984 4.08,0.02 7.653,33.541 c 0,0 -0.444,0.214 -1.124,0.214 v 0 c -0.599,0 -1.382,-0.166 -2.209,-0.791"
         id="path1675" />
    </clipPath>
    <linearGradient
       x1="0"
       y1="0"
       x2="1"
       y2="0"
       gradientUnits="userSpaceOnUse"
       gradientTransform="matrix(7.4334106,46.706299,46.706299,-7.4334106,165.58252,579.42969)"
       spreadMethod="pad"
       id="linearGradient1687">
      <stop
         style="stop-opacity:1;stop-color:#ffffff"
         offset="0"
         id="stop1683" />
      <stop
         style="stop-opacity:1;stop-color:#231f20"
         offset="1"
         id="stop1685" />
    </linearGradient>
    <filter
       style="color-interpolation-filters:sRGB;"
       id="filter3788">
      <feColorMatrix
         values="0.21 0.72 0.072 -0.13 0 0.21 0.72 0.072 -0.13 0 0.21 0.72 0.072 -0.13 0 0 0 0 1 0 "
         id="feColorMatrix3786" />
    </filter>
  </defs>
  <metadata
     id="metadata4692">
    <rdf:RDF>
      <cc:Work
         rdf:about="">
        <dc:format>image/svg+xml</dc:format>
        <dc:type
           rdf:resource="http://purl.org/dc/dcmitype/StillImage" />
        <dc:title></dc:title>
      </cc:Work>
    </rdf:RDF>
  </metadata>
  <g
     id="layer1"
     transform="translate(-42.294075,-55.901221)"
     style="filter:url(#filter3788)">
    <g
       id="g1587"
       transform="matrix(0.35277777,0,0,-0.35277777,-7.5008604,295.28916)">
      <g
         id="g1589"
         clip-path="url(#clipPath1593)">
        <g
           id="g1595">
          <g
             id="g1597">
            <path
               d="m 149.804,678.58 c -4.78,0 -8.653,-3.874 -8.653,-8.653 v 0 -81.487 c 0,-4.779 3.873,-8.654 8.653,-8.654 v 0 h 81.486 c 4.78,0 8.655,3.875 8.655,8.654 v 0 81.487 c 0,4.779 -3.875,8.653 -8.655,8.653 v 0 z"
               style="fill:url(#radialGradient1603);stroke:none"
               id="path1605" />
          </g>
        </g>
      </g>
    </g>
    <g
       id="g1627"
       transform="matrix(0.35277777,0,0,-0.35277777,-7.5008604,295.28916)">
      <g
         id="g1629"
         clip-path="url(#clipPath1633)">
        <g
           id="g1635"
           transform="translate(180.4902,632.209)">
          <path
             d="m 0,0 c 0,0 0.552,35.343 11.321,39.761 0,0 9.664,-1.657 -1.656,-40.865 z"
             style="fill:#ffffff;fill-opacity:1;fill-rule:evenodd;stroke:none"
             id="path1637" />
        </g>
        <g
           id="g1639"
           transform="translate(183.0298,636.3032)">
          <path
             d="m 0,0 c 0,0 0.354,24.117 7.264,27.132 0,0 6.201,-1.131 -1.063,-27.886 z"
             style="fill:#f5a7c9;fill-opacity:1;fill-rule:evenodd;stroke:none"
             id="path1641" />
        </g>
        <g
           id="g1643"
           transform="translate(193.2202,630.3555)">
          <path
             d="m 0,0 c 0,0 9.521,34.04 21.06,35.574 0,0 8.925,-4.06 -11.996,-39.1 z"
             style="fill:#ffffff;fill-opacity:1;fill-rule:evenodd;stroke:none"
             id="path1645" />
        </g>
        <g
           id="g1647"
           transform="translate(197.4395,634.6973)">
          <path
             d="m 0,0 c 0,0 5.972,21.902 12.977,23.032 0,0 5.388,-2.483 -7.5,-25.172 z"
             style="fill:#f5a7c9;fill-opacity:1;fill-rule:evenodd;stroke:none"
             id="path1649" />
        </g>
      </g>
    </g>
    <g
       id="g1651"
       transform="matrix(0.35277777,0,0,-0.35277777,-7.5008604,295.28916)">
      <g
         id="g1653"
         clip-path="url(#clipPath1657)">
        <g
           id="g1659">
          <g
             id="g1661">
            <path
               d="m 161.789,642.729 c -0.739,-3.103 3.065,-6.941 9.637,-10.447 v 0 l -7.568,-31.755 0.009,-0.002 c -0.006,-0.022 -0.018,-0.043 -0.024,-0.066 v 0 c -0.55,-2.308 8.013,-6.324 19.125,-8.972 v 0 c 11.112,-2.648 20.565,-2.922 21.115,-0.614 v 0 c 0.006,0.022 0.005,0.046 0.009,0.069 v 0 l 0.178,-0.043 7.566,31.755 c 7.445,0.167 12.571,1.878 13.311,4.98 v 0 c 1.318,5.534 -11.797,13.396 -29.292,17.566 v 0 c -7.146,1.702 -13.92,2.525 -19.521,2.525 v 0 c -8.112,0 -13.765,-1.724 -14.545,-4.996"
               style="fill:url(#linearGradient1667);stroke:none"
               id="path1669" />
          </g>
        </g>
      </g>
    </g>
    <g
       id="g1671"
       transform="matrix(0.35277777,0,0,-0.35277777,-7.5008604,295.28916)">
      <g
         id="g1673"
         clip-path="url(#clipPath1677)">
        <g
           id="g1679">
          <g
             id="g1681">
            <path
               d="m 174.14,633.483 -8.4,-32.984 4.08,0.02 7.653,33.541 c 0,0 -0.444,0.214 -1.124,0.214 v 0 c -0.599,0 -1.382,-0.166 -2.209,-0.791"
               style="fill:url(#linearGradient1687);stroke:none"
               id="path1689" />
          </g>
        </g>
      </g>
    </g>
  </g>
</svg>
