<?xml version="1.0" encoding="UTF-8" standalone="no"?>
<svg
   xmlns:dc="http://purl.org/dc/elements/1.1/"
   xmlns:cc="http://creativecommons.org/ns#"
   xmlns:rdf="http://www.w3.org/1999/02/22-rdf-syntax-ns#"
   xmlns:svg="http://www.w3.org/2000/svg"
   xmlns="http://www.w3.org/2000/svg"
   width="34.852325mm"
   height="34.852325mm"
   viewBox="0 0 34.852325 34.852325"
   version="1.1"
   id="svg4695">
  <defs
     id="defs4689">
    <clipPath
       clipPathUnits="userSpaceOnUse"
       id="clipPath1593">
      <path
         d="m 149.804,678.58 c -4.78,0 -8.653,-3.874 -8.653,-8.653 v 0 -81.487 c 0,-4.779 3.873,-8.654 8.653,-8.654 v 0 h 81.486 c 4.78,0 8.655,3.875 8.655,8.654 v 0 81.487 c 0,4.779 -3.875,8.653 -8.655,8.653 v 0 z"
         id="path1591" />
    </clipPath>
    <radialGradient
       fx="0"
       fy="0"
       cx="0"
       cy="0"
       r="1"
       gradientUnits="userSpaceOnUse"
       gradientTransform="matrix(49.396973,0,0,-49.396973,190.54736,629.18311)"
       spreadMethod="pad"
       id="radialGradient1603">
      <stop
         style="stop-opacity:1;stop-color:#c2e8f7"
         offset="0"
         id="stop1599" />
      <stop
         style="stop-opacity:1;stop-color:#46c6e5"
         offset="1"
         id="stop1601" />
    </radialGradient>
    <clipPath
       clipPathUnits="userSpaceOnUse"
       id="clipPath1633">
      <path
         d="M 0,841.89 H 595.28 V 0 H 0 Z"
         id="path1631" />
    </clipPath>
    <clipPath
       clipPathUnits="userSpaceOnUse"
       id="clipPath1657">
      <path
         d="m 161.789,642.729 c -0.739,-3.103 3.065,-6.941 9.637,-10.447 v 0 l -7.568,-31.755 0.009,-0.002 c -0.006,-0.022 -0.018,-0.043 -0.024,-0.066 v 0 c -0.55,-2.308 8.013,-6.324 19.125,-8.972 v 0 c 11.112,-2.648 20.565,-2.922 21.115,-0.614 v 0 c 0.006,0.022 0.005,0.046 0.009,0.069 v 0 l 0.178,-0.043 7.566,31.755 c 7.445,0.167 12.571,1.878 13.311,4.98 v 0 c 1.318,5.534 -11.797,13.396 -29.292,17.566 v 0 c -7.146,1.702 -13.92,2.525 -19.521,2.525 v 0 c -8.112,0 -13.765,-1.724 -14.545,-4.996"
         id="path1655" />
    </clipPath>
    <linearGradient
       x1="0"
       y1="0"
       x2="1"
       y2="0"
       gradientUnits="userSpaceOnUse"
       gradientTransform="matrix(4.2832336,50.176743,50.176743,-4.2832336,186.95703,558.89893)"
       spreadMethod="pad"
       id="linearGradient1667">
      <stop
         style="stop-opacity:1;stop-color:#828487"
         offset="0"
         id="stop1663" />
      <stop
         style="stop-opacity:1;stop-color:#231f20"
         offset="1"
         id="stop1665" />
    </linearGradient>
    <clipPath
       clipPathUnits="userSpaceOnUse"
       id="clipPath1677">
      <path
         d="m 174.14,633.483 -8.4,-32.984 4.08,0.02 7.653,33.541 c 0,0 -0.444,0.214 -1.124,0.214 v 0 c -0.599,0 -1.382,-0.166 -2.209,-0.791"
         id="path1675" />
    </clipPath>
    <linearGradient
       x1="0"
       y1="0"
       x2="1"
       y2="0"
       gradientUnits="userSpaceOnUse"
       gradientTransform="matrix(7.4334106,46.706299,46.706299,-7.4334106,165.58252,579.42969)"
       spreadMethod="pad"
       id="linearGradient1687">
      <stop
         style="stop-opacity:1;stop-color:#ffffff"
         offset="0"
         id="stop1683" />
      <stop
         style="stop-opacity:1;stop-color:#231f20"
         offset="1"
         id="stop1685" />
    </linearGradient>
    <clipPath
       clipPathUnits="userSpaceOnUse"
       id="clipPath1697">
      <path
         d="m 149.804,545.938 c -4.78,0 -8.653,-3.874 -8.653,-8.654 v 0 -81.486 c 0,-4.78 3.873,-8.655 8.653,-8.655 v 0 h 81.486 c 4.78,0 8.655,3.875 8.655,8.655 v 0 81.486 c 0,4.78 -3.875,8.654 -8.655,8.654 v 0 z"
         id="path1695" />
    </clipPath>
    <radialGradient
       fx="0"
       fy="0"
       cx="0"
       cy="0"
       r="1"
       gradientUnits="userSpaceOnUse"
       gradientTransform="matrix(49.396973,0,0,-49.396973,190.54736,496.54053)"
       spreadMethod="pad"
       id="radialGradient1707">
      <stop
         style="stop-opacity:1;stop-color:#e7e514"
         offset="0"
         id="stop1703" />
      <stop
         style="stop-opacity:1;stop-color:#6ebe44"
         offset="1"
         id="stop1705" />
    </radialGradient>
    <clipPath
       clipPathUnits="userSpaceOnUse"
       id="clipPath1717">
      <path
         d="M 0,841.89 H 595.28 V 0 H 0 Z"
         id="path1715" />
    </clipPath>
    <clipPath
       clipPathUnits="userSpaceOnUse"
       id="clipPath1049">
      <path
         d="m 149.804,415.06 c -4.78,0 -8.653,-3.875 -8.653,-8.654 v 0 -81.489 c 0,-4.776 3.873,-8.651 8.653,-8.651 v 0 h 81.486 c 4.78,0 8.655,3.875 8.655,8.651 v 0 81.489 c 0,4.779 -3.875,8.654 -8.655,8.654 v 0 z"
         id="path1047" />
    </clipPath>
    <radialGradient
       fx="0"
       fy="0"
       cx="0"
       cy="0"
       r="1"
       gradientUnits="userSpaceOnUse"
       gradientTransform="matrix(49.397217,0,0,-49.397217,190.54736,365.66357)"
       spreadMethod="pad"
       id="radialGradient1059">
      <stop
         style="stop-opacity:1;stop-color:#fef6fa"
         offset="0"
         id="stop1055" />
      <stop
         style="stop-opacity:1;stop-color:#f8bdd7"
         offset="1"
         id="stop1057" />
    </radialGradient>
    <clipPath
       clipPathUnits="userSpaceOnUse"
       id="clipPath1089">
      <path
         d="m 156.86,378.544 c -1.602,-10.154 22.759,-41.773 29.887,-42.896 v 0 c 7.125,-1.125 39.051,21.617 40.654,31.769 v 0 c 1.602,10.155 -5.33,19.672 -15.482,21.283 v 0 c -7.579,1.193 -14.806,-2.372 -18.649,-8.475 v 0 c -1.773,6.988 -7.552,12.603 -15.131,13.803 v 0 c -0.984,0.156 -1.963,0.231 -2.929,0.231 v 0 c -8.998,0 -16.91,-6.543 -18.35,-15.715 m 41.117,-1.665 c 5.035,2.448 11.101,0.364 13.555,-4.672 v 0 c 2.455,-5.031 -4.703,-25.15 -8.236,-26.872 v 0 c -3.533,-1.724 -24.28,4.791 -26.732,9.826 v 0 c -2.458,5.03 -0.367,11.101 4.668,13.553 v 0 c 3.758,1.83 8.091,1.127 11.063,-1.442 v 0 c -0.188,3.928 1.926,7.774 5.682,9.607"
         id="path1087" />
    </clipPath>
    <linearGradient
       x1="0"
       y1="0"
       x2="1"
       y2="0"
       gradientUnits="userSpaceOnUse"
       gradientTransform="matrix(29.536148,-72.949219,-72.949219,-29.536148,176.81592,412.45166)"
       spreadMethod="pad"
       id="linearGradient1099">
      <stop
         style="stop-opacity:1;stop-color:#a30c11"
         offset="0"
         id="stop1095" />
      <stop
         style="stop-opacity:1;stop-color:#ed1c24"
         offset="1"
         id="stop1097" />
    </linearGradient>
  </defs>
  <metadata
     id="metadata4692">
    <rdf:RDF>
      <cc:Work
         rdf:about="">
        <dc:format>image/svg+xml</dc:format>
        <dc:type
           rdf:resource="http://purl.org/dc/dcmitype/StillImage" />
        <dc:title></dc:title>
      </cc:Work>
    </rdf:RDF>
  </metadata>
  <g
     id="layer1"
     transform="translate(-38.719279,-48.451989)">
    <g
       id="g1043"
       transform="matrix(0.35277777,0,0,-0.35277777,-11.075656,194.87593)">
      <g
         id="g1045"
         clip-path="url(#clipPath1049)">
        <g
           id="g1051">
          <g
             id="g1053">
            <path
               d="m 149.804,415.06 c -4.78,0 -8.653,-3.875 -8.653,-8.654 v 0 -81.489 c 0,-4.776 3.873,-8.651 8.653,-8.651 v 0 h 81.486 c 4.78,0 8.655,3.875 8.655,8.651 v 0 81.489 c 0,4.779 -3.875,8.654 -8.655,8.654 v 0 z"
               style="fill:url(#radialGradient1059);stroke:none"
               id="path1061" />
          </g>
        </g>
      </g>
    </g>
    <g
       id="g1083"
       transform="matrix(0.35277777,0,0,-0.35277777,-11.075656,194.87593)">
      <g
         id="g1085"
         clip-path="url(#clipPath1089)">
        <g
           id="g1091">
          <g
             id="g1093">
            <path
               d="m 156.86,378.544 c -1.602,-10.154 22.759,-41.773 29.887,-42.896 v 0 c 7.125,-1.125 39.051,21.617 40.654,31.769 v 0 c 1.602,10.155 -5.33,19.672 -15.482,21.283 v 0 c -7.579,1.193 -14.806,-2.372 -18.649,-8.475 v 0 c -1.773,6.988 -7.552,12.603 -15.131,13.803 v 0 c -0.984,0.156 -1.963,0.231 -2.929,0.231 v 0 c -8.998,0 -16.91,-6.543 -18.35,-15.715 m 41.117,-1.665 c 5.035,2.448 11.101,0.364 13.555,-4.672 v 0 c 2.455,-5.031 -4.703,-25.15 -8.236,-26.872 v 0 c -3.533,-1.724 -24.28,4.791 -26.732,9.826 v 0 c -2.458,5.03 -0.367,11.101 4.668,13.553 v 0 c 3.758,1.83 8.091,1.127 11.063,-1.442 v 0 c -0.188,3.928 1.926,7.774 5.682,9.607"
               style="fill:url(#linearGradient1099);stroke:none"
               id="path1101" />
          </g>
        </g>
      </g>
    </g>
  </g>
</svg>
