<?xml version="1.0" encoding="UTF-8" standalone="no"?>
<svg
   xmlns:dc="http://purl.org/dc/elements/1.1/"
   xmlns:cc="http://creativecommons.org/ns#"
   xmlns:rdf="http://www.w3.org/1999/02/22-rdf-syntax-ns#"
   xmlns:svg="http://www.w3.org/2000/svg"
   xmlns="http://www.w3.org/2000/svg"
   width="34.852325mm"
   height="34.85268mm"
   viewBox="0 0 34.852325 34.85268"
   version="1.1"
   id="svg4695">
  <defs
     id="defs4689">
    <clipPath
       clipPathUnits="userSpaceOnUse"
       id="clipPath1593">
      <path
         d="m 149.804,678.58 c -4.78,0 -8.653,-3.874 -8.653,-8.653 v 0 -81.487 c 0,-4.779 3.873,-8.654 8.653,-8.654 v 0 h 81.486 c 4.78,0 8.655,3.875 8.655,8.654 v 0 81.487 c 0,4.779 -3.875,8.653 -8.655,8.653 v 0 z"
         id="path1591" />
    </clipPath>
    <radialGradient
       fx="0"
       fy="0"
       cx="0"
       cy="0"
       r="1"
       gradientUnits="userSpaceOnUse"
       gradientTransform="matrix(49.396973,0,0,-49.396973,190.54736,629.18311)"
       spreadMethod="pad"
       id="radialGradient1603">
      <stop
         style="stop-opacity:1;stop-color:#c2e8f7"
         offset="0"
         id="stop1599" />
      <stop
         style="stop-opacity:1;stop-color:#46c6e5"
         offset="1"
         id="stop1601" />
    </radialGradient>
    <clipPath
       clipPathUnits="userSpaceOnUse"
       id="clipPath1633">
      <path
         d="M 0,841.89 H 595.28 V 0 H 0 Z"
         id="path1631" />
    </clipPath>
    <clipPath
       clipPathUnits="userSpaceOnUse"
       id="clipPath1657">
      <path
         d="m 161.789,642.729 c -0.739,-3.103 3.065,-6.941 9.637,-10.447 v 0 l -7.568,-31.755 0.009,-0.002 c -0.006,-0.022 -0.018,-0.043 -0.024,-0.066 v 0 c -0.55,-2.308 8.013,-6.324 19.125,-8.972 v 0 c 11.112,-2.648 20.565,-2.922 21.115,-0.614 v 0 c 0.006,0.022 0.005,0.046 0.009,0.069 v 0 l 0.178,-0.043 7.566,31.755 c 7.445,0.167 12.571,1.878 13.311,4.98 v 0 c 1.318,5.534 -11.797,13.396 -29.292,17.566 v 0 c -7.146,1.702 -13.92,2.525 -19.521,2.525 v 0 c -8.112,0 -13.765,-1.724 -14.545,-4.996"
         id="path1655" />
    </clipPath>
    <linearGradient
       x1="0"
       y1="0"
       x2="1"
       y2="0"
       gradientUnits="userSpaceOnUse"
       gradientTransform="matrix(4.2832336,50.176743,50.176743,-4.2832336,186.95703,558.89893)"
       spreadMethod="pad"
       id="linearGradient1667">
      <stop
         style="stop-opacity:1;stop-color:#828487"
         offset="0"
         id="stop1663" />
      <stop
         style="stop-opacity:1;stop-color:#231f20"
         offset="1"
         id="stop1665" />
    </linearGradient>
    <clipPath
       clipPathUnits="userSpaceOnUse"
       id="clipPath1677">
      <path
         d="m 174.14,633.483 -8.4,-32.984 4.08,0.02 7.653,33.541 c 0,0 -0.444,0.214 -1.124,0.214 v 0 c -0.599,0 -1.382,-0.166 -2.209,-0.791"
         id="path1675" />
    </clipPath>
    <linearGradient
       x1="0"
       y1="0"
       x2="1"
       y2="0"
       gradientUnits="userSpaceOnUse"
       gradientTransform="matrix(7.4334106,46.706299,46.706299,-7.4334106,165.58252,579.42969)"
       spreadMethod="pad"
       id="linearGradient1687">
      <stop
         style="stop-opacity:1;stop-color:#ffffff"
         offset="0"
         id="stop1683" />
      <stop
         style="stop-opacity:1;stop-color:#231f20"
         offset="1"
         id="stop1685" />
    </linearGradient>
    <clipPath
       clipPathUnits="userSpaceOnUse"
       id="clipPath1697">
      <path
         d="m 149.804,545.938 c -4.78,0 -8.653,-3.874 -8.653,-8.654 v 0 -81.486 c 0,-4.78 3.873,-8.655 8.653,-8.655 v 0 h 81.486 c 4.78,0 8.655,3.875 8.655,8.655 v 0 81.486 c 0,4.78 -3.875,8.654 -8.655,8.654 v 0 z"
         id="path1695" />
    </clipPath>
    <radialGradient
       fx="0"
       fy="0"
       cx="0"
       cy="0"
       r="1"
       gradientUnits="userSpaceOnUse"
       gradientTransform="matrix(49.396973,0,0,-49.396973,190.54736,496.54053)"
       spreadMethod="pad"
       id="radialGradient1707">
      <stop
         style="stop-opacity:1;stop-color:#e7e514"
         offset="0"
         id="stop1703" />
      <stop
         style="stop-opacity:1;stop-color:#6ebe44"
         offset="1"
         id="stop1705" />
    </radialGradient>
    <clipPath
       clipPathUnits="userSpaceOnUse"
       id="clipPath1717">
      <path
         d="M 0,841.89 H 595.28 V 0 H 0 Z"
         id="path1715" />
    </clipPath>
  </defs>
  <metadata
     id="metadata4692">
    <rdf:RDF>
      <cc:Work
         rdf:about="">
        <dc:format>image/svg+xml</dc:format>
        <dc:type
           rdf:resource="http://purl.org/dc/dcmitype/StillImage" />
        <dc:title></dc:title>
      </cc:Work>
    </rdf:RDF>
  </metadata>
  <g
     id="layer1"
     transform="translate(-46.129073,-48.30226)">
    <g
       id="g1691"
       transform="matrix(0.35277777,0,0,-0.35277777,-3.6658624,240.89705)">
      <g
         id="g1693"
         clip-path="url(#clipPath1697)">
        <g
           id="g1699">
          <g
             id="g1701">
            <path
               d="m 149.804,545.938 c -4.78,0 -8.653,-3.874 -8.653,-8.654 v 0 -81.486 c 0,-4.78 3.873,-8.655 8.653,-8.655 v 0 h 81.486 c 4.78,0 8.655,3.875 8.655,8.655 v 0 81.486 c 0,4.78 -3.875,8.654 -8.655,8.654 v 0 z"
               style="fill:url(#radialGradient1707);stroke:none"
               id="path1709" />
          </g>
        </g>
      </g>
    </g>
    <g
       id="g1711"
       transform="matrix(0.35277777,0,0,-0.35277777,-3.6658624,240.89705)">
      <g
         id="g1713"
         clip-path="url(#clipPath1717)">
        <g
           id="g1719"
           transform="translate(196.3198,486.3896)">
          <path
             d="m 0,0 c -1.393,4.013 4.283,13.939 8.134,17.719 3.851,3.778 8.105,3.59 9.497,-0.422 C 19.023,13.284 17.03,6.97 13.178,3.192 9.326,-0.588 1.393,-4.011 0,0 m -10.954,-0.215 c -1.234,-4.064 -9.296,-0.956 -13.293,2.668 -3.999,3.625 -6.239,9.856 -5.005,13.92 1.232,4.063 5.474,4.419 9.473,0.796 3.998,-3.625 10.059,-13.319 8.825,-17.384 m 4.579,45.719 C -21.901,45.198 -34.218,31.219 -33.884,14.281 -33.55,-2.657 -13.182,-25.367 -4.982,-25.206 3.998,-25.028 22.676,-1.549 22.342,15.389 22.008,32.327 9.151,45.81 -6.375,45.504"
             style="fill:#00712d;fill-opacity:1;fill-rule:evenodd;stroke:none"
             id="path1721" />
        </g>
      </g>
    </g>
  </g>
</svg>
